<svg fill="none" xmlns="http://www.w3.org/2000/svg" viewBox="0 0.95 176.97 23.1"> <path d="M55.3788 12.0971C55.0172 11.7475 54.5999 11.4745 54.1209 11.269C53.6418 11.0666 53.1319 10.9654 52.5848 10.9654H47.3214C46.9505 10.9654 46.6383 10.8336 46.3849 10.5729C46.1315 10.3122 46.0047 9.99632 46.0047 9.6283C46.0047 9.26028 46.1315 8.95053 46.3849 8.69905C46.6383 8.44758 46.9505 8.32183 47.3214 8.32183H55.249V5.73957H47.3214C46.7743 5.73957 46.2644 5.84079 45.7853 6.0432C45.3063 6.2456 44.8921 6.52161 44.5429 6.87123C44.1936 7.22085 43.9155 7.6318 43.7084 8.10409C43.5044 8.57945 43.4024 9.08547 43.4024 9.6283C43.4024 10.1711 43.5044 10.6771 43.7084 11.1525C43.9124 11.6279 44.1905 12.0419 44.5429 12.4007C44.8952 12.7595 45.3093 13.0386 45.7853 13.241C46.2613 13.4434 46.7743 13.5446 47.3214 13.5446H52.5848C52.9742 13.5446 53.2957 13.6704 53.5491 13.9218C53.8025 14.1733 53.9292 14.4831 53.9292 14.8511C53.9292 15.2375 53.8025 15.5564 53.5491 15.8079C53.2957 16.0594 52.9742 16.1851 52.5848 16.1851H44.6881V18.7674H52.5848C53.1319 18.7674 53.6418 18.6662 54.1209 18.4638C54.5968 18.2614 55.0172 17.9792 55.3788 17.6235C55.7404 17.2646 56.0216 16.8506 56.2256 16.3753C56.4296 15.8999 56.5316 15.3939 56.5316 14.8511C56.5316 14.3083 56.4296 13.8022 56.2256 13.3269C56.0216 12.8515 55.7373 12.4406 55.3788 12.094V12.0971ZM60.8616 0.952289H58.2593V12.2443C58.2593 13.1337 58.4293 13.977 58.7723 14.7683C59.1123 15.5626 59.5852 16.2587 60.191 16.8568C60.7967 17.4579 61.4983 17.9271 62.2957 18.2644C63.0962 18.6018 63.943 18.7735 64.8393 18.7735H66.1251V16.1913H64.8393C64.2923 16.1913 63.7761 16.0901 63.2878 15.8876C62.7995 15.6852 62.3761 15.4031 62.0145 15.0473C61.6529 14.6885 61.3716 14.2684 61.1645 13.7838C60.9605 13.2993 60.8585 12.7871 60.8585 12.2443V8.38316H66.122V5.80091H60.8585V0.952289H60.8616ZM39.7152 7.67167C39.1094 7.08284 38.414 6.61669 37.6228 6.27934C36.8316 5.94199 35.9786 5.77025 35.0637 5.77025C34.1489 5.77025 33.3175 5.93892 32.5201 6.27934C31.7196 6.61669 31.0242 7.08284 30.4277 7.67167C29.8343 8.26357 29.3645 8.94746 29.0246 9.73257C28.6846 10.5177 28.5115 11.3641 28.5115 12.2719V18.8011H31.1139V12.2719C31.1139 11.7291 31.2159 11.223 31.4198 10.7477C31.6238 10.2754 31.9082 9.8583 32.2698 9.49949C32.6314 9.14067 33.0486 8.86159 33.5277 8.65918C34.0036 8.45678 34.5167 8.35556 35.0637 8.35556C35.6108 8.35556 36.1269 8.45678 36.6153 8.65918C37.1036 8.86159 37.527 9.14374 37.8886 9.49949C38.2502 9.8583 38.5315 10.2723 38.7355 10.7477C38.9395 11.223 39.0415 11.7291 39.0415 12.2719V18.8011H41.6438V12.2719C41.6438 11.3641 41.4738 10.5146 41.1307 9.73257C40.7908 8.94746 40.3179 8.26357 39.7121 7.67167H39.7152ZM94.2348 7.67167C93.629 7.08284 92.9336 6.61669 92.1424 6.27934C91.3512 5.94199 90.4981 5.77025 89.5833 5.77025C88.6685 5.77025 87.8371 5.93892 87.0397 6.27934C86.2392 6.61669 85.5438 7.08284 84.9473 7.67167C84.3539 8.26357 83.8841 8.94746 83.5441 9.73257C83.2042 10.5177 83.0311 11.3641 83.0311 12.2719V18.8011H85.6334V12.2719C85.6334 11.7291 85.7354 11.223 85.9394 10.7477C86.1434 10.2754 86.4277 9.8583 86.7893 9.49949C87.1509 9.14067 87.5682 8.86159 88.0472 8.65918C88.5232 8.45678 89.0363 8.35556 89.5833 8.35556C90.1304 8.35556 90.6465 8.45678 91.1348 8.65918C91.6232 8.86159 92.0466 9.14374 92.4082 9.49949C92.7698 9.8583 93.051 10.2723 93.255 10.7477C93.459 11.223 93.561 11.7291 93.561 12.2719V18.8011H96.1634V12.2719C96.1634 11.3641 95.9934 10.5146 95.6503 9.73257C95.3103 8.94746 94.8375 8.26357 94.2317 7.67167H94.2348ZM3.73972 9.48416C4.12915 9.09774 4.56802 8.80638 5.05635 8.61317C5.54468 8.41997 6.03919 8.32183 6.54915 8.32183C7.05911 8.32183 7.55362 8.41997 8.04195 8.61317C8.53027 8.80638 8.96915 9.09774 9.35857 9.48416L10.295 10.3827L12.1093 8.55491L11.2037 7.65633C10.5608 7.01844 9.83454 6.54001 9.02478 6.22107C8.21502 5.90212 7.38981 5.74264 6.55224 5.74264C5.71466 5.74264 4.88945 5.90212 4.0797 6.22107C3.26994 6.54001 2.54363 7.01844 1.90077 7.65633C1.25791 8.29423 0.778852 9.01186 0.466693 9.8031C0.154535 10.5974 0 11.4132 0 12.2565C0 13.0999 0.154535 13.9157 0.466693 14.71C0.778852 15.5043 1.25791 16.2189 1.90077 16.8568C2.54363 17.4947 3.26994 17.9731 4.0797 18.292C4.88945 18.611 5.71157 18.7705 6.55224 18.7705C7.3929 18.7705 8.21502 18.611 9.02478 18.292C9.83454 17.9731 10.5608 17.4947 11.2037 16.8568L12.1093 15.9582L10.295 14.1304L9.35857 15.0289C8.98769 15.4154 8.55809 15.7067 8.07285 15.8999C7.58453 16.0931 7.07765 16.1913 6.55224 16.1913C5.46123 16.1913 4.52475 15.8048 3.7459 15.0289C3.35648 14.6425 3.06286 14.207 2.86815 13.7225C2.67344 13.2379 2.57454 12.7442 2.57454 12.2412C2.57454 11.7383 2.67035 11.2445 2.86815 10.7599C3.06286 10.2754 3.35648 9.85217 3.7459 9.48416H3.73972ZM24.7996 7.69927C24.1938 7.11044 23.4984 6.64429 22.7072 6.30694C21.916 5.96959 21.063 5.79785 20.1481 5.79785C19.2333 5.79785 18.4019 5.96652 17.6045 6.30694C16.804 6.64429 16.1086 7.11044 15.5121 7.69927C14.9156 8.2881 14.4489 8.97507 14.1089 9.76017C13.769 10.5453 13.5959 11.3917 13.5959 12.2995C13.5959 13.2073 13.7659 14.0322 14.1089 14.8235C14.4489 15.6178 14.9187 16.3139 15.5121 16.912C16.1055 17.5131 16.804 17.9823 17.6045 18.3196C18.405 18.657 19.2518 18.8287 20.1481 18.8287C21.0444 18.8287 21.9191 18.6601 22.7072 18.3196C23.4953 17.9823 24.1938 17.5131 24.7996 16.912C25.4054 16.3139 25.8783 15.6147 26.2182 14.8235C26.5582 14.0292 26.7313 13.1889 26.7313 12.2995C26.7313 11.4101 26.5613 10.5422 26.2182 9.76017C25.8783 8.97507 25.4054 8.29117 24.7996 7.69927ZM23.8199 13.839C23.6159 14.3236 23.3315 14.7437 22.973 15.1025C22.6114 15.4614 22.188 15.7404 21.6997 15.9429C21.2113 16.1453 20.6952 16.2465 20.1481 16.2465C19.6011 16.2465 19.0849 16.1453 18.5966 15.9429C18.1083 15.7404 17.6849 15.4583 17.3233 15.1025C16.9616 14.7437 16.6804 14.3236 16.4733 13.839C16.2693 13.3545 16.1673 12.8423 16.1673 12.2995C16.1673 11.7567 16.2693 11.2506 16.4733 10.7753C16.6773 10.2999 16.9616 9.8859 17.3233 9.52709C17.6849 9.16827 18.1083 8.88919 18.5966 8.68678C19.0849 8.48438 19.6011 8.38316 20.1481 8.38316C20.6952 8.38316 21.2113 8.48438 21.6997 8.68678C22.188 8.88919 22.6114 9.17134 22.973 9.52709C23.3346 9.8859 23.6159 10.2999 23.8199 10.7753C24.0238 11.2506 24.1258 11.7567 24.1258 12.2995C24.1258 12.8423 24.0238 13.3545 23.8199 13.839ZM141.263 7.69927C140.657 7.11044 139.961 6.64429 139.17 6.30694C138.379 5.96959 137.526 5.79785 136.611 5.79785C135.696 5.79785 134.865 5.96652 134.067 6.30694C133.267 6.64429 132.572 7.11044 131.975 7.69927C131.379 8.2881 130.912 8.97507 130.572 9.76017C130.232 10.5453 130.059 11.3917 130.059 12.2995C130.059 13.2073 130.229 14.0322 130.572 14.8235C130.912 15.6178 131.382 16.3139 131.975 16.912C132.568 17.5131 133.267 17.9823 134.067 18.3196C134.868 18.657 135.715 18.8287 136.611 18.8287C137.507 18.8287 138.382 18.6601 139.17 18.3196C139.958 17.9823 140.657 17.5131 141.263 16.912C141.868 16.3139 142.341 15.6147 142.681 14.8235C143.021 14.0292 143.194 13.1889 143.194 12.2995C143.194 11.4101 143.024 10.5422 142.681 9.76017C142.341 8.97507 141.868 8.29117 141.263 7.69927ZM140.283 13.839C140.079 14.3236 139.794 14.7437 139.436 15.1025C139.074 15.4614 138.651 15.7404 138.163 15.9429C137.674 16.1453 137.158 16.2465 136.611 16.2465C136.064 16.2465 135.548 16.1453 135.06 15.9429C134.571 15.7404 134.148 15.4583 133.786 15.1025C133.425 14.7437 133.143 14.3236 132.936 13.839C132.732 13.3545 132.63 12.8423 132.63 12.2995C132.63 11.7567 132.732 11.2506 132.936 10.7753C133.14 10.2999 133.425 9.8859 133.786 9.52709C134.148 9.16827 134.571 8.88919 135.06 8.68678C135.548 8.48438 136.064 8.38316 136.611 8.38316C137.158 8.38316 137.674 8.48438 138.163 8.68678C138.651 8.88919 139.074 9.17134 139.436 9.52709C139.798 9.8859 140.079 10.2999 140.283 10.7753C140.487 11.2506 140.589 11.7567 140.589 12.2995C140.589 12.8423 140.487 13.3545 140.283 13.839ZM126.199 7.67167C125.593 7.08284 124.897 6.61669 124.106 6.27934C123.315 5.94199 122.462 5.77025 121.547 5.77025C120.632 5.77025 119.801 5.93892 119.003 6.27934C118.203 6.61669 117.508 7.08284 116.911 7.67167C116.318 8.26357 115.848 8.94746 115.508 9.73257C115.168 10.5177 114.995 11.3641 114.995 12.2719V18.8011H117.597V12.2719C117.597 11.7291 117.699 11.223 117.903 10.7477C118.107 10.2754 118.392 9.8583 118.753 9.49949C119.115 9.14067 119.532 8.86159 120.011 8.65918C120.487 8.45678 121 8.35556 121.547 8.35556C122.094 8.35556 122.61 8.45678 123.099 8.65918C123.587 8.86159 124.01 9.14374 124.372 9.49949C124.734 9.8583 125.015 10.2723 125.219 10.7477C125.423 11.223 125.525 11.7291 125.525 12.2719V18.8011H128.127V12.2719C128.127 11.3641 127.957 10.5146 127.614 9.73257C127.274 8.94746 126.801 8.26357 126.195 7.67167H126.199ZM174.225 15.0872C173.6 15.7067 172.874 16.0778 172.046 16.2035C171.217 16.3293 170.432 16.2097 169.691 15.8416L176.972 8.61624L176.067 7.71767C175.424 7.07977 174.698 6.60135 173.888 6.28241C173.078 5.96346 172.253 5.80398 171.415 5.80398C170.578 5.80398 169.752 5.96346 168.943 6.28241C168.133 6.60135 167.407 7.07977 166.764 7.71767C166.121 8.35557 165.642 9.0732 165.33 9.86444C165.018 10.6587 164.863 11.4715 164.863 12.3026C164.863 13.1337 165.018 13.9525 165.33 14.756C165.642 15.5595 166.121 16.2802 166.764 16.9181C167.388 17.5376 168.099 18.0129 168.899 18.3411C169.7 18.6692 170.537 18.8349 171.415 18.8349C172.293 18.8349 173.131 18.6692 173.931 18.3411C174.732 18.0129 175.442 17.5376 176.067 16.9181L176.972 16.0195L175.13 14.1917L174.225 15.0903V15.0872ZM168.915 12.9527C168.436 13.4281 168.08 13.7808 167.845 14.0108C167.574 13.4679 167.438 12.8975 167.438 12.2995C167.438 11.2169 167.827 10.2877 168.609 9.51482C169.233 8.89532 169.959 8.52731 170.788 8.41077C171.616 8.29423 172.401 8.41997 173.143 8.78799C172.871 9.05786 172.485 9.43508 171.987 9.91964C171.489 10.4042 170.973 10.9102 170.435 11.4438C169.898 11.9775 169.391 12.4804 168.915 12.9527ZM160.215 18.7705H162.817V0.949219H160.215V18.7705ZM109.351 18.7705H111.926V5.73957H109.351V18.7705ZM101.016 0.949219H98.4134V12.2412C98.4134 13.1306 98.5834 13.974 98.9264 14.7652C99.2664 15.5595 99.7393 16.2557 100.345 16.8537C100.951 17.4548 101.652 17.924 102.45 18.2614C103.25 18.5987 104.097 18.7705 104.993 18.7705H106.279V16.1882H104.993C104.446 16.1882 103.93 16.087 103.442 15.8846C102.954 15.6822 102.53 15.4 102.169 15.0443C101.807 14.6855 101.526 14.2653 101.319 13.7808C101.115 13.2962 101.013 12.784 101.013 12.2412V8.3801H106.276V5.79785H101.013V0.949219H101.016ZM80.2525 9.7571C79.9126 8.972 79.4397 8.2881 78.8339 7.6962C78.2282 7.10737 77.5328 6.64122 76.7415 6.30387C75.9503 5.96652 75.0973 5.79478 74.1825 5.79478C73.2676 5.79478 72.4362 5.96345 71.6388 6.30387C70.8383 6.64122 70.143 7.10737 69.5464 7.6962C68.9499 8.28503 68.4833 8.972 68.1433 9.7571C67.8033 10.5422 67.6302 11.3886 67.6302 12.2964C67.6302 13.2042 67.8002 14.0292 68.1433 14.8204C68.4833 15.6147 68.953 16.3109 69.5464 16.9089C70.1399 17.51 70.8383 17.9792 71.6388 18.3166C72.4393 18.6539 73.2862 18.8257 74.1825 18.8257C75.0788 18.8257 75.9534 18.657 76.7415 18.3166C77.2546 18.0958 77.7244 17.8167 78.1602 17.4855V18.795H80.7625V12.2657C80.7594 11.3672 80.5894 10.5299 80.2525 9.75403V9.7571ZM77.8542 13.836C77.6502 14.3205 77.3659 14.7407 77.0073 15.0995C76.6457 15.4583 76.2223 15.7374 75.734 15.9398C75.2457 16.1422 74.7295 16.2434 74.1825 16.2434C73.6354 16.2434 73.1193 16.1422 72.631 15.9398C72.1426 15.7374 71.7192 15.4552 71.3576 15.0995C70.996 14.7407 70.7147 14.3205 70.5076 13.836C70.3037 13.3514 70.2017 12.8392 70.2017 12.2964C70.2017 11.7536 70.3037 11.2476 70.5076 10.7722C70.7116 10.2969 70.996 9.88283 71.3576 9.52402C71.7192 9.1652 72.1426 8.88612 72.631 8.68371C73.1193 8.48131 73.6354 8.3801 74.1825 8.3801C74.7295 8.3801 75.2457 8.48131 75.734 8.68371C76.2223 8.88612 76.6457 9.16827 77.0073 9.52402C77.3689 9.88283 77.6502 10.2969 77.8542 10.7722C78.0582 11.2476 78.1602 11.7536 78.1602 12.2964C78.1602 12.8392 78.0582 13.3514 77.8542 13.836ZM156.354 7.6962C155.749 7.10737 155.053 6.64122 154.262 6.30387C153.471 5.96652 152.618 5.79478 151.703 5.79478C150.788 5.79478 149.957 5.96345 149.159 6.30387C148.359 6.64122 147.663 7.10737 147.067 7.6962C146.47 8.28503 146.004 8.972 145.664 9.7571C145.324 10.5422 145.151 11.3886 145.151 12.2964V24.0515H147.753V17.5039C148.179 17.8259 148.646 18.1019 149.156 18.3196C149.957 18.657 150.803 18.8287 151.7 18.8287C152.596 18.8287 153.471 18.6601 154.259 18.3196C155.047 17.9823 155.745 17.5131 156.351 16.912C156.957 16.3139 157.43 15.6147 157.77 14.8235C158.11 14.0292 158.283 13.1889 158.283 12.2995C158.283 11.4101 158.113 10.5422 157.77 9.76017C157.43 8.97507 156.957 8.29117 156.351 7.69927L156.354 7.6962ZM155.375 13.836C155.171 14.3205 154.886 14.7407 154.528 15.0995C154.166 15.4583 153.743 15.7374 153.254 15.9398C152.766 16.1422 152.25 16.2434 151.703 16.2434C151.156 16.2434 150.64 16.1422 150.151 15.9398C149.663 15.7374 149.24 15.4552 148.878 15.0995C148.516 14.7407 148.235 14.3205 148.028 13.836C147.824 13.3514 147.722 12.8392 147.722 12.2964C147.722 11.7536 147.824 11.2476 148.028 10.7722C148.232 10.2969 148.516 9.88283 148.878 9.52402C149.24 9.1652 149.663 8.88612 150.151 8.68371C150.64 8.48131 151.156 8.3801 151.703 8.3801C152.25 8.3801 152.766 8.48131 153.254 8.68371C153.743 8.88612 154.166 9.16827 154.528 9.52402C154.889 9.88283 155.171 10.2969 155.375 10.7722C155.579 11.2476 155.681 11.7536 155.681 12.2964C155.681 12.8392 155.579 13.3514 155.375 13.836Z" fill="black"/> <circle cx="110.607" cy="3.01968" r="1.41665" fill="black"/> </svg>